<svg xmlns="http://www.w3.org/2000/svg" viewBox="0 0 526.84 141.38"><defs><style>.cls-1{fill:#2b3990;}.cls-2{fill:#1b75bc;}.cls-3{fill:#2e3192;}</style></defs><title>Layer 1</title><g id="Layer_2" data-name="Layer 2"><g id="Layer_1-2" data-name="Layer 1"><g id="Layer_12" data-name="Layer 12"><path class="cls-1" d="M165.53,138.25a25.38,25.38,0,0,1-8.24-1.35,21.51,21.51,0,0,1-6.82-3.79,14.88,14.88,0,0,1-4.26-5.6,2.69,2.69,0,0,1,0-2.64,3.37,3.37,0,0,1,2.4-1.55,3.33,3.33,0,0,1,2.39.37,4.1,4.1,0,0,1,1.79,1.93,8.71,8.71,0,0,0,2.67,3.1A15.42,15.42,0,0,0,160,131a17.28,17.28,0,0,0,5.54.88,17,17,0,0,0,6-1,10.69,10.69,0,0,0,4.42-2.93,7,7,0,0,0,1.69-4.77,8.93,8.93,0,0,0-2.8-6.41q-2.81-2.83-9.22-3.51-8.39-.81-13.17-4.93a12.93,12.93,0,0,1-4.8-10.2,11.7,11.7,0,0,1,2.5-7.57,15.54,15.54,0,0,1,6.79-4.72,26.86,26.86,0,0,1,9.56-1.62,20.67,20.67,0,0,1,7.19,1.14A17.13,17.13,0,0,1,179,88.54a20.68,20.68,0,0,1,4,4.79,4.25,4.25,0,0,1,.78,2.81,2.78,2.78,0,0,1-1.32,2.06,3.14,3.14,0,0,1-2.77.33,3.82,3.82,0,0,1-2.23-1.75,12.06,12.06,0,0,0-2.63-3.31,11.77,11.77,0,0,0-3.65-2.13,14.09,14.09,0,0,0-4.93-.78,16.31,16.31,0,0,0-8.37,1.86,6.37,6.37,0,0,0-3.38,5.91,7.75,7.75,0,0,0,1,3.88,8.4,8.4,0,0,0,3.85,3.21,25.17,25.17,0,0,0,8.07,1.89q8,.81,12.53,4.9A13.9,13.9,0,0,1,184.51,123a13.46,13.46,0,0,1-1.59,6.69,14.68,14.68,0,0,1-4.25,4.76,19,19,0,0,1-6.08,2.87A26.37,26.37,0,0,1,165.53,138.25Z"/><path class="cls-1" d="M225.43,138.65a26.21,26.21,0,0,1-11.48-2.4,18.79,18.79,0,0,1-7.8-6.65,17.27,17.27,0,0,1-2.8-9.72V88.34a3.4,3.4,0,0,1,1-2.54,3.48,3.48,0,0,1,2.5-1,3.36,3.36,0,0,1,3.51,3.52v31.54a11.08,11.08,0,0,0,1.93,6.45,13,13,0,0,0,5.33,4.39,18.45,18.45,0,0,0,7.8,1.58,17.15,17.15,0,0,0,7.53-1.58,12.65,12.65,0,0,0,5.14-4.39,11.47,11.47,0,0,0,1.85-6.45V88.34a3.37,3.37,0,0,1,1-2.54,3.46,3.46,0,0,1,2.5-1,3.31,3.31,0,0,1,2.49,1,3.52,3.52,0,0,1,.95,2.54v31.54a17.55,17.55,0,0,1-2.74,9.72,18.44,18.44,0,0,1-7.59,6.65A24.9,24.9,0,0,1,225.43,138.65Z"/><path class="cls-1" d="M272,137.57a3.45,3.45,0,0,1-3.51-3.51V88.34a3.4,3.4,0,0,1,1-2.54,3.48,3.48,0,0,1,2.5-1h13.51a17.88,17.88,0,0,1,9,2.23,15.85,15.85,0,0,1,6.11,6.18,18.34,18.34,0,0,1,2.2,9.09,17.37,17.37,0,0,1-2.2,8.78,15.56,15.56,0,0,1-6.11,6,18.27,18.27,0,0,1-9,2.16h-10v14.79a3.48,3.48,0,0,1-1,2.5A3.4,3.4,0,0,1,272,137.57Zm3.52-24.79h10a10.85,10.85,0,0,0,5.47-1.35,9.72,9.72,0,0,0,3.71-3.71,10.62,10.62,0,0,0,1.36-5.4,11.59,11.59,0,0,0-1.36-5.71A10,10,0,0,0,291,92.73a10.4,10.4,0,0,0-5.47-1.42h-10Z"/><path class="cls-1" d="M322.21,137.57a3.45,3.45,0,0,1-3.51-3.51V88.34a3.4,3.4,0,0,1,1-2.54,3.48,3.48,0,0,1,2.5-1h13.51a17.88,17.88,0,0,1,9,2.23,15.85,15.85,0,0,1,6.11,6.18,18.45,18.45,0,0,1,2.2,9.09,17.47,17.47,0,0,1-2.2,8.78,15.56,15.56,0,0,1-6.11,6,18.27,18.27,0,0,1-9,2.16h-10v14.79a3.44,3.44,0,0,1-1,2.5A3.37,3.37,0,0,1,322.21,137.57Zm3.51-24.79h10a10.85,10.85,0,0,0,5.47-1.35,9.79,9.79,0,0,0,3.71-3.71,10.72,10.72,0,0,0,1.35-5.4,11.7,11.7,0,0,0-1.35-5.71,10.1,10.1,0,0,0-3.71-3.88,10.4,10.4,0,0,0-5.47-1.42h-10Z"/><path class="cls-1" d="M393.26,138.25a28.79,28.79,0,0,1-10.88-2,24.52,24.52,0,0,1-8.47-5.6,25.38,25.38,0,0,1-5.5-8.58,31.23,31.23,0,0,1,0-21.78,25.4,25.4,0,0,1,5.5-8.54,24.69,24.69,0,0,1,8.47-5.61,30.63,30.63,0,0,1,21.72,0,25,25,0,0,1,14,14.15,31.23,31.23,0,0,1,0,21.78,25.17,25.17,0,0,1-5.54,8.58,24.9,24.9,0,0,1-8.47,5.6A28.51,28.51,0,0,1,393.26,138.25Zm0-6.35a20.14,20.14,0,0,0,8.07-1.59,19.31,19.31,0,0,0,10.54-11,23.74,23.74,0,0,0,0-16.34,19.45,19.45,0,0,0-4.16-6.58,19.12,19.12,0,0,0-6.38-4.36,21.78,21.78,0,0,0-16.14,0,18.7,18.7,0,0,0-6.35,4.36,20.06,20.06,0,0,0-4.15,6.58,23.14,23.14,0,0,0,0,16.34,20,20,0,0,0,4.15,6.59,19.06,19.06,0,0,0,6.35,4.39A20.11,20.11,0,0,0,393.26,131.9Z"/><path class="cls-1" d="M442.69,137.57a3.45,3.45,0,0,1-3.51-3.51V88.34a3.4,3.4,0,0,1,1-2.54,3.48,3.48,0,0,1,2.5-1h12.16a18.55,18.55,0,0,1,9,2.13A15.75,15.75,0,0,1,470,92.79a16.72,16.72,0,0,1,2.19,8.65,15,15,0,0,1-8.3,13.78,19.33,19.33,0,0,1-9,2h-8.64v16.82a3.48,3.48,0,0,1-1,2.5A3.4,3.4,0,0,1,442.69,137.57Zm3.52-26.81h8.64a12.17,12.17,0,0,0,5.47-1.18,9.2,9.2,0,0,0,3.72-3.31,8.83,8.83,0,0,0,1.35-4.83A10.21,10.21,0,0,0,464,96.17a9.49,9.49,0,0,0-3.72-3.58,11.33,11.33,0,0,0-5.47-1.28h-8.64Zm24.51,26.81a3.66,3.66,0,0,1-1.72-.4,3.39,3.39,0,0,1-1.32-1.29L455.53,116.3l6.82-2,11.07,17.83a3.55,3.55,0,0,1,.34,3.68A3.13,3.13,0,0,1,470.72,137.57Z"/><path class="cls-1" d="M487.47,91.31a3.2,3.2,0,0,1-2.33-.91,3.25,3.25,0,0,1,2.33-5.58H523.6a3.25,3.25,0,1,1,0,6.49Zm18.1,46.26a3.45,3.45,0,0,1-3.51-3.51V84.82h7v49.24a3.39,3.39,0,0,1-1,2.5A3.42,3.42,0,0,1,505.57,137.57Z"/></g><g id="Layer_11" data-name="Layer 11"><path class="cls-2" d="M156.71,58.82H146.19V.8h10.52Z"/></g><g id="Layer_10" data-name="Layer 10"><path class="cls-2" d="M221.45,11.32H198.26v47.5H187.74V11.32H164.52V.8h56.93Z"/></g><g id="Layer_9" data-name="Layer 9"><path class="cls-2" d="M307.68,58.82h-38a16.64,16.64,0,0,1-4.77-.77,13.88,13.88,0,0,1-4.8-2.53A14.15,14.15,0,0,1,256.47,51a14.73,14.73,0,0,1-1.47-6.9V6.1A5.34,5.34,0,0,1,255.4,4a5.55,5.55,0,0,1,1.11-1.7,5,5,0,0,1,1.68-1.13A5.43,5.43,0,0,1,260.3.8h47.38V11.32H265.52V44.05a4.27,4.27,0,0,0,1.09,3.16,4.32,4.32,0,0,0,3.2,1.09h37.87ZM303,35.11H269.72V24.51H303Z"/></g><g id="Layer_8" data-name="Layer 8"><path class="cls-2" d="M344.34,21.51,362.06.8h14.37l-25,29.09,24.81,28.93H362L344.34,38.27,326.78,58.82H312.45l24.77-28.93L312.37.8h14.25Z"/></g><g id="Layer_7" data-name="Layer 7"><path class="cls-2" d="M440,58.82H429.48V44.58h-37V58.82H382v-29a30.58,30.58,0,0,1,2.19-11.7,27.3,27.3,0,0,1,6.07-9.18,27.7,27.7,0,0,1,9.18-6A30.63,30.63,0,0,1,411,.8H434.7a5.28,5.28,0,0,1,3.76,1.53A5.11,5.11,0,0,1,439.59,4,5.35,5.35,0,0,1,440,6.1ZM392.49,34.06h37V11.32H411c-.33,0-1,0-2.05.14a20.09,20.09,0,0,0-3.6.71A21.62,21.62,0,0,0,401,13.91a15.22,15.22,0,0,0-4.17,3.23,16.76,16.76,0,0,0-3.13,5.16,20.39,20.39,0,0,0-1.24,7.51Z"/></g><g id="Layer_6" data-name="Layer 6"><path class="cls-2" d="M519.76,59.65H509.15V25.09L490.5,57.91a4.57,4.57,0,0,1-1.92,1.9,5.67,5.67,0,0,1-2.65.65,5.3,5.3,0,0,1-2.57-.65,4.53,4.53,0,0,1-1.88-1.9L462.74,25.09V59.65H452.22V6.12a5.24,5.24,0,0,1,1.07-3.24,5,5,0,0,1,4.51-2,5.66,5.66,0,0,1,1.64.36,4.76,4.76,0,0,1,1.44.85A4.79,4.79,0,0,1,462,3.36l24,41.64L509.88,3.36a5.16,5.16,0,0,1,2.57-2.18,5.46,5.46,0,0,1,3.42-.2,5.23,5.23,0,0,1,2.79,1.9,5.14,5.14,0,0,1,1.1,3.24Z"/></g><g id="Layer_5" data-name="Layer 5"><rect class="cls-1" x="95.74" width="32.35" height="141.38" rx="8.41"/></g><g id="Layer_4" data-name="Layer 4"><rect class="cls-1" x="47.87" y="39.93" width="32.35" height="101.45" rx="8.41"/></g><g id="Layer_3" data-name="Layer 3"><rect class="cls-1" y="70.69" width="32.35" height="70.69" rx="8.41"/></g><g id="Layer_2-2" data-name="Layer 2"><path class="cls-3" d="M524.59,71.49c0,.4-2.55.73-5.67.73H153.81c-3.12,0-5.67-.33-5.67-.73s2.55-.74,5.67-.74H518.92C522,70.75,524.59,71.08,524.59,71.49Z"/></g></g></g></svg>